<?xml version="1.0" encoding="UTF-8"?>
<svg width="1380px" height="431px" viewBox="0 0 1380 431" version="1.1" xmlns="http://www.w3.org/2000/svg" xmlns:xlink="http://www.w3.org/1999/xlink">
    <title>Group</title>
    <g id="Page-1" stroke="none" stroke-width="1" fill="none" fill-rule="evenodd">
        <g id="pixel-co-blue" transform="translate(-56.000000, -533.000000)">
            <g id="Group" transform="translate(56.832900, 533.367400)">
                <path d="M398.7471,26.8537 L456.4202,26.8537 L514.0937,26.8537 L571.7668,26.8537 L571.7668,84.5271 L571.7668,142.2002 L571.7668,199.8737 L571.7668,257.5468 L514.0937,257.5468 L456.4202,257.5468 L456.4202,315.2199 L398.7471,315.2199 L398.7471,372.8933 L398.7471,430.5665 L341.074,430.5665 L341.074,372.8933 L283.4005,372.8933 L283.4005,315.2199 L341.074,315.2199 L341.074,257.5468 L283.4005,257.5468 L283.4005,199.8737 L341.074,199.8737 L341.074,142.2002 L283.4005,142.2002 L283.4005,84.5271 L283.4005,26.8537 L341.074,26.8537 L398.7471,26.8537 Z M456.4202,84.5271 L398.7471,84.5271 L398.7471,142.2002 L398.7471,199.8737 L456.4202,199.8737 L514.0937,199.8737 L514.0937,142.2002 L514.0937,84.5271 L456.4202,84.5271 Z M113.9888,83.7396 L171.6619,83.7396 L171.6619,141.4131 L113.9888,141.4131 L113.9888,83.7396 Z M152.8852,190.1398 L199.351,190.1398 L199.351,236.6056 L152.8852,236.6056 L152.8852,190.1398 Z M223.8293,140.2333 L251.3552,140.2333 L251.3552,167.7588 L223.8293,167.7588 L223.8293,140.2333 Z M200.8239,36.0289 L237.5244,36.0289 L237.5244,72.7293 L200.8239,72.7293 L200.8239,36.0289 Z M76.0414,240.768 L112.7418,240.768 L112.7418,277.4684 L76.0414,277.4684 L76.0414,240.768 Z M233.2713,365.6823 L260.7971,365.6823 L260.7971,393.2081 L233.2713,393.2081 L233.2713,365.6823 Z M202.5953,281.7283 L240.9347,281.7283 L240.9347,320.0675 L202.5953,320.0675 L202.5953,281.7283 Z M36.6546,138.9223 L57.6267,138.9223 L57.6267,159.8944 L36.6546,159.8944 L36.6546,138.9223 Z M148.2305,333.1091 L175.2982,333.1091 L175.2982,360.1768 L148.2305,360.1768 L148.2305,333.1091 Z" id="Fill-418" fill="#006483"></path>
                <path d="M712.3451,422.5872 L743.4494,422.5872 L707.1872,368.1941 L742.0425,312.8632 L711.72,312.8632 L692.3384,345.9991 L670.2999,312.8632 L639.1959,312.8632 L675.1452,366.7875 L639.9774,422.5872 L670.2999,422.5872 L689.9939,388.9822 L712.3451,422.5872 Z M1129.6219,367.7252 C1129.6219,401.0794 1153.1288,424.2685 1183.9414,424.2685 C1208.7188,424.2685 1227.1431,411.8796 1235.0846,390.9143 L1222.0606,390.9143 C1215.8663,405.3679 1202.8422,414.5799 1183.9414,414.5799 C1159.6405,414.5799 1141.0577,396.6321 1141.0577,367.7252 C1141.0577,338.6596 1159.6405,320.7118 1183.9414,320.7118 C1202.8422,320.7118 1215.8663,329.9238 1222.0606,344.6951 L1235.0846,344.6951 C1227.1431,323.4121 1208.7188,311.0232 1183.9414,311.0232 C1153.1288,311.0232 1129.6219,334.3711 1129.6219,367.7252 Z M506.2992,421.9225 L557.2701,421.9225 L557.2701,312.1982 L506.2992,312.1982 L506.2992,421.9225 Z M377.1514,-1.13686838e-13 L437.2232,-1.13686838e-13 L497.295,-1.13686838e-13 L557.3668,-1.13686838e-13 L557.3668,60.0718 L557.3668,120.1436 L557.3668,180.2154 L557.3668,240.2872 L497.295,240.2872 L437.2232,240.2872 L437.2232,300.359 L377.1514,300.359 L377.1514,360.4308 L377.1514,420.5026 L317.0795,420.5026 L317.0795,360.4308 L257.0077,360.4308 L257.0077,300.359 L317.0795,300.359 L317.0795,240.2872 L257.0077,240.2872 L257.0077,180.2154 L317.0795,180.2154 L317.0795,120.1436 L257.0077,120.1436 L257.0077,60.0718 L257.0077,-1.13686838e-13 L317.0795,-1.13686838e-13 L377.1514,-1.13686838e-13 Z M437.2232,60.0718 L377.1514,60.0718 L377.1514,120.1436 L377.1514,180.2154 L437.2232,180.2154 L497.295,180.2154 L497.295,120.1436 L497.295,60.0718 L437.2232,60.0718 Z M80.5505,59.2517 L140.622,59.2517 L140.622,119.3235 L80.5505,119.3235 L80.5505,59.2517 Z M121.0646,170.077 L169.4628,170.077 L169.4628,218.4749 L121.0646,218.4749 L121.0646,170.077 Z M194.959,118.0947 L223.6295,118.0947 L223.6295,146.7652 L194.959,146.7652 L194.959,118.0947 Z M170.9969,9.5567 L209.2238,9.5567 L209.2238,47.7836 L170.9969,47.7836 L170.9969,9.5567 Z M41.0247,222.8105 L79.2514,222.8105 L79.2514,261.0374 L41.0247,261.0374 L41.0247,222.8105 Z M204.7938,352.9201 L233.4643,352.9201 L233.4643,381.5903 L204.7938,381.5903 L204.7938,352.9201 Z M172.842,265.4744 L212.7756,265.4744 L212.7756,305.4081 L172.842,305.4081 L172.842,265.4744 Z M0,116.7295 L21.8444,116.7295 L21.8444,138.5739 L0,138.5739 L0,116.7295 Z M116.216,318.9923 L144.4094,318.9923 L144.4094,347.1857 L116.216,347.1857 L116.216,318.9923 Z M1379.1348,367.7252 C1379.1348,334.5298 1355.4695,311.0232 1324.1801,311.0232 C1293.0495,311.0232 1269.2251,334.5298 1269.2251,367.7252 C1269.2251,401.0794 1293.0495,424.4272 1324.1801,424.4272 C1355.4695,424.4272 1379.1348,401.0794 1379.1348,367.7252 Z M1280.6609,367.7252 C1280.6609,338.6596 1299.5615,320.8705 1324.1801,320.8705 C1348.7984,320.8705 1367.6993,338.6596 1367.6993,367.7252 C1367.6993,396.7911 1348.7984,414.7387 1324.1801,414.7387 C1299.5615,414.7387 1280.6609,396.7911 1280.6609,367.7252 Z M996.0857,312.8632 L996.0857,422.5872 L1057.8249,422.5872 L1057.8249,401.9553 L1022.8133,401.9553 L1022.8133,312.8632 L996.0857,312.8632 Z M901.4185,312.8632 L834.2088,312.8632 L834.2088,422.5872 L901.4185,422.5872 L901.4185,401.1738 L860.9364,401.1738 L860.9364,377.1034 L896.7294,377.1034 L896.7294,356.4714 L860.9364,356.4714 L860.9364,334.2767 L901.4185,334.2767 L901.4185,312.8632 Z" id="Fill-419" fill="#FEFEFE"></path>
            </g>
        </g>
    </g>
</svg>